<?xml version="1.0" encoding="UTF-8" standalone="no"?>
<svg
   width="48"
   height="48"
   viewBox="0 0 12.7 12.7"
   version="1.1"
   id="svg8"
   inkscape:version="1.3 (0e150ed6c4, 2023-07-21)"
   sodipodi:docname="app-icon.svg"
   inkscape:export-filename="../favicon.png"
   inkscape:export-xdpi="64"
   inkscape:export-ydpi="64"
   xml:space="preserve"
   xmlns:inkscape="http://www.inkscape.org/namespaces/inkscape"
   xmlns:sodipodi="http://sodipodi.sourceforge.net/DTD/sodipodi-0.dtd"
   xmlns="http://www.w3.org/2000/svg"
   xmlns:svg="http://www.w3.org/2000/svg"
   xmlns:rdf="http://www.w3.org/1999/02/22-rdf-syntax-ns#"
   xmlns:cc="http://creativecommons.org/ns#"
   xmlns:dc="http://purl.org/dc/elements/1.1/"><defs
     id="defs2" /><sodipodi:namedview
     id="base"
     pagecolor="#ffffff"
     bordercolor="#666666"
     borderopacity="1.0"
     inkscape:pageopacity="0.0"
     inkscape:pageshadow="2"
     inkscape:zoom="11.313708"
     inkscape:cx="32.659494"
     inkscape:cy="33.189825"
     inkscape:document-units="px"
     inkscape:current-layer="layer1"
     inkscape:document-rotation="0"
     showgrid="true"
     units="px"
     inkscape:window-width="1946"
     inkscape:window-height="1295"
     inkscape:window-x="26"
     inkscape:window-y="23"
     inkscape:window-maximized="0"
     inkscape:showpageshadow="2"
     inkscape:pagecheckerboard="0"
     inkscape:deskcolor="#d1d1d1"><inkscape:grid
       type="xygrid"
       id="grid1418"
       originx="0"
       originy="0"
       spacingy="1"
       spacingx="1"
       units="px"
       visible="true" /></sodipodi:namedview><metadata
     id="metadata5"><rdf:RDF><cc:Work
         rdf:about=""><dc:format>image/svg+xml</dc:format><dc:type
           rdf:resource="http://purl.org/dc/dcmitype/StillImage" /><dc:title /></cc:Work></rdf:RDF></metadata><g
     inkscape:label="Ebene 1"
     inkscape:groupmode="layer"
     id="layer1"><rect
       style="opacity:1;fill:#c87137;fill-opacity:1;stroke:none;stroke-width:1.058;stroke-miterlimit:4;stroke-dasharray:none"
       id="rect1416"
       width="12.7"
       height="12.7"
       x="9.5367433e-08"
       y="9.5367433e-08" /><path
       d="m 3.3734375,6.416112 v 1.5875123 c 0,0.329409 0.265906,0.595318 0.595312,0.595318 0.329406,0 0.595313,-0.265909 0.595313,-0.595318 V 6.416112 c 0,-0.329409 -0.265907,-0.5953173 -0.595313,-0.5953173 -0.329406,0 -0.595312,0.2659083 -0.595312,0.5953173 z m 2.38125,0 v 1.5875123 c 0,0.329409 0.265906,0.595318 0.595312,0.595318 0.329406,0 0.595313,-0.265909 0.595313,-0.595318 V 6.416112 c 0,-0.329409 -0.265907,-0.5953173 -0.595313,-0.5953173 -0.329406,0 -0.595312,0.2659083 -0.595312,0.5953173 z m -2.579688,4.167221 h 6.35 c 0.329406,0 0.5953125,-0.265908 0.5953125,-0.5953177 0,-0.329409 -0.2659065,-0.595317 -0.5953125,-0.595317 h -6.35 c -0.329406,0 -0.595312,0.265908 -0.595312,0.595317 0,0.3294097 0.265906,0.5953177 0.595312,0.5953177 z m 4.960938,-4.167221 v 1.5875123 c 0,0.329409 0.265906,0.595318 0.595312,0.595318 0.329406,0 0.595313,-0.265909 0.595313,-0.595318 V 6.416112 c 0,-0.329409 -0.265907,-0.5953173 -0.595313,-0.5953173 -0.329406,0 -0.595312,0.2659083 -0.595312,0.5953173 z m -2.155032,-3.9727503 -3.135312,1.651013 c -0.162719,0.083345 -0.265906,0.254002 -0.265906,0.436566 0,0.273846 0.22225,0.4960977 0.496093,0.4960977 h 6.552407 c 0.269875,0 0.4921255,-0.2222517 0.4921255,-0.4960977 0,-0.182564 -0.103188,-0.3532215 -0.2659075,-0.436566 l -3.135312,-1.651013 c -0.230188,-0.1230323 -0.508,-0.1230323 -0.738188,0 z"
       id="path2"
       style="fill:#ffffff;stroke-width:0.396877" /></g></svg>
